<svg width="500" height="500" viewBox="0 0 500 500" fill="none" xmlns="http://www.w3.org/2000/svg">
<path d="M416.748 353.342H430C430 379.73 423.681 398.937 411.043 410.962C398.405 422.987 382.638 429 363.742 429C348.282 429 335.359 423.828 321.126 415.895C306.892 407.962 292.208 387.914 280.92 353.342L243.642 247.514L116.933 425.493H70L228.098 203.831C219.754 173.935 208.957 131.838 197.178 117.474C185.399 103.111 168.085 98.5932 150.662 98.5929C136.674 98.5932 127.362 104.83 116.933 112.095C106.503 119.361 100.675 135.971 99.4479 151.17H86.1963C86.9325 126.619 94.1717 106.953 107.914 92.1713C121.656 77.3908 138.834 70.0004 159.448 70C172.699 70.0004 185.276 73.7164 197.178 81.1483C209.08 88.5808 219.386 101.274 228.098 119.228C236.81 137.182 250.368 174.385 268.773 230.836L294.908 310.252C305.46 343.154 316.564 365.158 328.221 376.265C339.877 387.371 353.406 397.627 369.603 397.627C397.087 397.627 413.067 379.73 416.748 353.342Z" fill="black"/>
</svg>
