<svg width="500" height="500" viewBox="0 0 500 500" fill="none" xmlns="http://www.w3.org/2000/svg">
<rect width="500" height="500" fill="black"/>
<path d="M459.325 380.743H476C476 413.967 468.048 438.149 452.146 453.29C436.242 468.43 416.402 476 392.626 476C373.171 476 356.91 469.488 339 459.5C321.09 449.512 302.612 424.271 288.408 380.743L241.5 247.5L82.0567 471.584H23L221.94 192.5C211.441 154.86 197.854 101.857 183.032 83.7725C168.21 65.6887 146.424 60.0004 124.5 60C106.899 60.0004 95.1804 67.8532 82.0567 77C68.933 86.1476 61.5991 107.062 60.0552 126.197H43.3804C44.3067 95.2858 53.4161 70.5252 70.7086 51.9149C88.0009 33.3054 109.616 24.0004 135.555 24C152.23 24.0004 168.056 28.6792 183.032 38.0363C198.009 47.3942 210.978 63.3756 221.94 85.9805C232.902 108.586 249.963 155.426 273.123 226.501L306.009 326.49C319.287 367.915 333.26 395.62 347.928 409.604C362.595 423.587 379.619 436.5 400 436.5C434.584 436.5 454.693 413.967 459.325 380.743Z" fill="white"/>
</svg>
